<svg width="327" height="119" viewBox="0 0 327 119" fill="none" xmlns="http://www.w3.org/2000/svg">
<g filter="url(#filter0_d_9_278)">
<g filter="url(#filter1_b_9_278)">
<path d="M15 56C15 36.67 30.67 21 50 21H301V65C301 84.33 285.33 100 266 100H15V56Z" fill="white" fill-opacity="0.3"/>
<path d="M16.5 56C16.5 37.4985 31.4985 22.5 50 22.5H299.5V65C299.5 83.5015 284.502 98.5 266 98.5H16.5V56Z" stroke="white" stroke-width="3"/>
</g>
</g>
<circle cx="55.5" cy="60.5" r="25" fill="#5E7600" stroke="white"/>
<g filter="url(#filter2_d_9_278)">
<path d="M49 53.46V50.5629C51.6692 50.4886 53.8251 49.5971 55.7414 48H58V74H55.2624V51.8257C53.5171 52.8657 51.3954 53.3857 49 53.46Z" fill="#F6FFD2"/>
</g>
<path d="M92.078 56V46.2H93.198V54.936H98.644V56H92.078ZM100.174 52.514C100.174 50.372 101.756 48.79 103.856 48.79C106.012 48.79 107.58 50.302 107.58 52.514C107.58 54.698 106.012 56.21 103.856 56.21C101.756 56.21 100.174 54.628 100.174 52.514ZM101.294 52.5C101.294 54.026 102.4 55.146 103.856 55.146C105.41 55.146 106.46 54.082 106.46 52.5C106.46 50.918 105.396 49.84 103.856 49.84C102.386 49.84 101.294 50.974 101.294 52.5ZM113.549 48.79V49.966C111.589 49.966 110.329 51.52 110.329 54.012V56H109.209V49H110.175L110.329 51.226C110.917 49.714 112.079 48.79 113.549 48.79ZM121.548 52.822H115.486C115.612 54.264 116.606 55.314 117.936 55.314C118.916 55.314 119.714 54.81 120.176 54.012H121.324C120.75 55.37 119.504 56.21 117.936 56.21C115.878 56.21 114.352 54.628 114.352 52.514C114.352 50.372 115.85 48.79 117.936 48.79C120.064 48.79 121.562 50.302 121.562 52.514C121.562 52.612 121.548 52.71 121.548 52.822ZM115.486 52.178H120.428C120.302 50.708 119.322 49.714 117.936 49.714C116.606 49.714 115.612 50.736 115.486 52.178ZM124.356 52.542V56H123.236V49H124.202L124.342 50.344C124.86 49.378 125.742 48.79 126.806 48.79C128.052 48.79 129.018 49.588 129.452 50.862C129.914 49.602 130.922 48.79 132.154 48.79C133.862 48.79 135.066 50.344 135.066 52.542V56H133.946V52.542C133.946 50.918 133.078 49.84 131.818 49.84C130.586 49.84 129.718 50.932 129.718 52.542V56H128.598V52.542C128.598 50.918 127.758 49.84 126.47 49.84C125.21 49.84 124.356 50.932 124.356 52.542ZM140.806 46.592C140.806 46.228 141.044 45.99 141.394 45.99C141.758 45.99 141.996 46.228 141.996 46.592C141.996 46.942 141.758 47.18 141.394 47.18C141.044 47.18 140.806 46.942 140.806 46.592ZM141.954 56H140.834V49H141.954V56ZM144.223 49H145.189L145.329 50.386C145.917 49.392 146.911 48.79 148.087 48.79C149.991 48.79 151.419 50.372 151.419 52.486C151.419 54.628 150.005 56.21 148.087 56.21C146.925 56.21 145.917 55.622 145.343 54.614V58.8H144.223V49ZM150.299 52.5C150.299 50.932 149.235 49.798 147.793 49.798C146.323 49.798 145.343 50.904 145.343 52.5C145.343 54.082 146.351 55.188 147.793 55.188C149.235 55.188 150.299 54.068 150.299 52.5ZM158.501 54.138C158.501 55.314 157.367 56.21 155.743 56.21C153.965 56.21 152.719 55.454 152.551 54.026H153.615C153.769 54.894 154.497 55.356 155.757 55.356C156.709 55.356 157.437 54.824 157.437 54.152C157.437 52.08 152.775 53.662 152.775 50.848C152.775 49.714 153.881 48.79 155.505 48.79C157.227 48.79 158.319 49.616 158.431 51.002H157.395C157.339 50.232 156.737 49.63 155.491 49.63C154.595 49.63 153.853 50.162 153.853 50.834C153.853 52.836 158.501 51.142 158.501 54.138ZM165.793 52.458V49H166.913V56H165.947L165.807 54.614C165.261 55.594 164.309 56.21 163.175 56.21C161.397 56.21 160.137 54.642 160.137 52.458V49H161.257V52.458C161.257 54.068 162.153 55.146 163.511 55.146C164.869 55.146 165.793 54.054 165.793 52.458ZM170.198 52.542V56H169.078V49H170.044L170.184 50.344C170.702 49.378 171.584 48.79 172.648 48.79C173.894 48.79 174.86 49.588 175.294 50.862C175.756 49.602 176.764 48.79 177.996 48.79C179.704 48.79 180.908 50.344 180.908 52.542V56H179.788V52.542C179.788 50.918 178.92 49.84 177.66 49.84C176.428 49.84 175.56 50.932 175.56 52.542V56H174.44V52.542C174.44 50.918 173.6 49.84 172.312 49.84C171.052 49.84 170.198 50.932 170.198 52.542ZM193.298 56H192.318L192.192 54.586C191.618 55.608 190.596 56.21 189.42 56.21C187.516 56.21 186.088 54.628 186.088 52.514C186.088 50.372 187.502 48.79 189.42 48.79C190.596 48.79 191.604 49.392 192.178 50.4V46.2H193.298V56ZM187.208 52.5C187.208 54.054 188.286 55.188 189.714 55.188C191.184 55.188 192.178 54.096 192.178 52.5C192.178 50.918 191.17 49.798 189.714 49.798C188.272 49.798 187.208 50.918 187.208 52.5ZM194.989 52.514C194.989 50.372 196.571 48.79 198.671 48.79C200.827 48.79 202.395 50.302 202.395 52.514C202.395 54.698 200.827 56.21 198.671 56.21C196.571 56.21 194.989 54.628 194.989 52.514ZM196.109 52.5C196.109 54.026 197.215 55.146 198.671 55.146C200.225 55.146 201.275 54.082 201.275 52.5C201.275 50.918 200.211 49.84 198.671 49.84C197.201 49.84 196.109 50.974 196.109 52.5ZM205.143 46.2V56H204.023V46.2H205.143ZM206.829 52.514C206.829 50.372 208.411 48.79 210.511 48.79C212.667 48.79 214.235 50.302 214.235 52.514C214.235 54.698 212.667 56.21 210.511 56.21C208.411 56.21 206.829 54.628 206.829 52.514ZM207.949 52.5C207.949 54.026 209.055 55.146 210.511 55.146C212.065 55.146 213.115 54.082 213.115 52.5C213.115 50.918 212.051 49.84 210.511 49.84C209.041 49.84 207.949 50.974 207.949 52.5ZM220.203 48.79V49.966C218.243 49.966 216.983 51.52 216.983 54.012V56H215.863V49H216.829L216.983 51.226C217.571 49.714 218.733 48.79 220.203 48.79ZM230.62 54.138C230.62 55.314 229.486 56.21 227.862 56.21C226.084 56.21 224.838 55.454 224.67 54.026H225.734C225.888 54.894 226.616 55.356 227.876 55.356C228.828 55.356 229.556 54.824 229.556 54.152C229.556 52.08 224.894 53.662 224.894 50.848C224.894 49.714 226 48.79 227.624 48.79C229.346 48.79 230.438 49.616 230.55 51.002H229.514C229.458 50.232 228.856 49.63 227.61 49.63C226.714 49.63 225.972 50.162 225.972 50.834C225.972 52.836 230.62 51.142 230.62 54.138ZM232.326 46.592C232.326 46.228 232.564 45.99 232.914 45.99C233.278 45.99 233.516 46.228 233.516 46.592C233.516 46.942 233.278 47.18 232.914 47.18C232.564 47.18 232.326 46.942 232.326 46.592ZM233.474 56H232.354V49H233.474V56ZM237.814 50.05V52.724C237.814 54.432 238.472 55.146 239.942 55.146V56.21C237.646 56.21 236.694 55.034 236.694 52.724V50.05H235.224V49.574L237.352 47.432H237.814V49H239.942V50.05H237.814ZM251.91 56H250.944L250.804 54.558C250.244 55.594 249.236 56.21 248.046 56.21C246.128 56.21 244.672 54.628 244.672 52.514C244.672 50.372 246.128 48.79 248.046 48.79C249.236 48.79 250.23 49.406 250.79 50.442L250.944 49H251.91V56ZM245.792 52.5C245.792 54.054 246.87 55.188 248.34 55.188C249.782 55.188 250.79 54.096 250.79 52.5C250.79 50.918 249.782 49.798 248.34 49.798C246.842 49.798 245.792 50.918 245.792 52.5ZM255.169 52.542V56H254.049V49H255.015L255.155 50.344C255.673 49.378 256.555 48.79 257.619 48.79C258.865 48.79 259.831 49.588 260.265 50.862C260.727 49.602 261.735 48.79 262.967 48.79C264.675 48.79 265.879 50.344 265.879 52.542V56H264.759V52.542C264.759 50.918 263.891 49.84 262.631 49.84C261.399 49.84 260.531 50.932 260.531 52.542V56H259.411V52.542C259.411 50.918 258.571 49.84 257.283 49.84C256.023 49.84 255.169 50.932 255.169 52.542ZM274.769 52.822H268.707C268.833 54.264 269.827 55.314 271.157 55.314C272.137 55.314 272.935 54.81 273.397 54.012H274.545C273.971 55.37 272.725 56.21 271.157 56.21C269.099 56.21 267.573 54.628 267.573 52.514C267.573 50.372 269.071 48.79 271.157 48.79C273.285 48.79 274.783 50.302 274.783 52.514C274.783 52.612 274.769 52.71 274.769 52.822ZM268.707 52.178H273.649C273.523 50.708 272.543 49.714 271.157 49.714C269.827 49.714 268.833 50.736 268.707 52.178ZM278.543 50.05V52.724C278.543 54.432 279.201 55.146 280.671 55.146V56.21C278.375 56.21 277.423 55.034 277.423 52.724V50.05H275.953V49.574L278.081 47.432H278.543V49H280.671V50.05H278.543ZM282.013 58.002L282.349 54.936H283.595L282.965 58.002H282.013ZM92.722 70.5C92.722 72.054 93.8 73.188 95.27 73.188C96.432 73.188 97.356 72.53 97.72 71.536H98.882C98.42 73.146 97.062 74.21 95.27 74.21C93.17 74.21 91.602 72.628 91.602 70.514C91.602 68.372 93.156 66.79 95.27 66.79C97.048 66.79 98.406 67.84 98.868 69.45H97.706C97.328 68.47 96.418 67.798 95.27 67.798C93.8 67.798 92.722 68.96 92.722 70.5ZM99.8598 70.514C99.8598 68.372 101.442 66.79 103.542 66.79C105.698 66.79 107.266 68.302 107.266 70.514C107.266 72.698 105.698 74.21 103.542 74.21C101.442 74.21 99.8598 72.628 99.8598 70.514ZM100.98 70.5C100.98 72.026 102.086 73.146 103.542 73.146C105.096 73.146 106.146 72.082 106.146 70.5C106.146 68.918 105.082 67.84 103.542 67.84C102.072 67.84 100.98 68.974 100.98 70.5ZM110.014 70.542V74H108.894V67H109.86L110 68.386C110.546 67.392 111.47 66.79 112.618 66.79C114.424 66.79 115.67 68.344 115.67 70.542V74H114.55V70.542C114.55 68.918 113.654 67.84 112.282 67.84C110.938 67.84 110.014 68.932 110.014 70.542ZM123.31 72.138C123.31 73.314 122.176 74.21 120.552 74.21C118.774 74.21 117.528 73.454 117.36 72.026H118.424C118.578 72.894 119.306 73.356 120.566 73.356C121.518 73.356 122.246 72.824 122.246 72.152C122.246 70.08 117.584 71.662 117.584 68.848C117.584 67.714 118.69 66.79 120.314 66.79C122.036 66.79 123.128 67.616 123.24 69.002H122.204C122.148 68.232 121.546 67.63 120.3 67.63C119.404 67.63 118.662 68.162 118.662 68.834C118.662 70.836 123.31 69.142 123.31 72.138ZM131.556 70.822H125.494C125.62 72.264 126.614 73.314 127.944 73.314C128.924 73.314 129.722 72.81 130.184 72.012H131.332C130.758 73.37 129.512 74.21 127.944 74.21C125.886 74.21 124.36 72.628 124.36 70.514C124.36 68.372 125.858 66.79 127.944 66.79C130.072 66.79 131.57 68.302 131.57 70.514C131.57 70.612 131.556 70.71 131.556 70.822ZM125.494 70.178H130.436C130.31 68.708 129.33 67.714 127.944 67.714C126.614 67.714 125.62 68.736 125.494 70.178ZM133.888 70.5C133.888 72.054 134.966 73.188 136.436 73.188C137.598 73.188 138.522 72.53 138.886 71.536H140.048C139.586 73.146 138.228 74.21 136.436 74.21C134.336 74.21 132.768 72.628 132.768 70.514C132.768 68.372 134.322 66.79 136.436 66.79C138.214 66.79 139.572 67.84 140.034 69.45H138.872C138.494 68.47 137.584 67.798 136.436 67.798C134.966 67.798 133.888 68.96 133.888 70.5ZM143.766 68.05V70.724C143.766 72.432 144.424 73.146 145.894 73.146V74.21C143.598 74.21 142.646 73.034 142.646 70.724V68.05H141.176V67.574L143.304 65.432H143.766V67H145.894V68.05H143.766ZM154.278 70.822H148.216C148.342 72.264 149.336 73.314 150.666 73.314C151.646 73.314 152.444 72.81 152.906 72.012H154.054C153.48 73.37 152.234 74.21 150.666 74.21C148.608 74.21 147.082 72.628 147.082 70.514C147.082 68.372 148.58 66.79 150.666 66.79C152.794 66.79 154.292 68.302 154.292 70.514C154.292 70.612 154.278 70.71 154.278 70.822ZM148.216 70.178H153.158C153.032 68.708 152.052 67.714 150.666 67.714C149.336 67.714 148.342 68.736 148.216 70.178ZM158.053 68.05V70.724C158.053 72.432 158.711 73.146 160.181 73.146V74.21C157.885 74.21 156.933 73.034 156.933 70.724V68.05H155.463V67.574L157.591 65.432H158.053V67H160.181V68.05H158.053ZM167.556 70.458V67H168.676V74H167.71L167.57 72.614C167.024 73.594 166.072 74.21 164.938 74.21C163.16 74.21 161.9 72.642 161.9 70.458V67H163.02V70.458C163.02 72.068 163.916 73.146 165.274 73.146C166.632 73.146 167.556 72.054 167.556 70.458ZM175.182 66.79V67.966C173.222 67.966 171.962 69.52 171.962 72.012V74H170.842V67H171.808L171.962 69.226C172.55 67.714 173.712 66.79 175.182 66.79ZM186.873 74H185.907L185.767 72.558C185.207 73.594 184.199 74.21 183.009 74.21C181.091 74.21 179.635 72.628 179.635 70.514C179.635 68.372 181.091 66.79 183.009 66.79C184.199 66.79 185.193 67.406 185.753 68.442L185.907 67H186.873V74ZM180.755 70.5C180.755 72.054 181.833 73.188 183.303 73.188C184.745 73.188 185.753 72.096 185.753 70.5C185.753 68.918 184.745 67.798 183.303 67.798C181.805 67.798 180.755 68.918 180.755 70.5ZM195.732 74H194.752L194.626 72.586C194.052 73.608 193.03 74.21 191.854 74.21C189.95 74.21 188.522 72.628 188.522 70.514C188.522 68.372 189.936 66.79 191.854 66.79C193.03 66.79 194.038 67.392 194.612 68.4V64.2H195.732V74ZM189.642 70.5C189.642 72.054 190.72 73.188 192.148 73.188C193.618 73.188 194.612 72.096 194.612 70.5C194.612 68.918 193.604 67.798 192.148 67.798C190.706 67.798 189.642 68.918 189.642 70.5ZM197.968 64.592C197.968 64.228 198.206 63.99 198.556 63.99C198.92 63.99 199.158 64.228 199.158 64.592C199.158 64.942 198.92 65.18 198.556 65.18C198.206 65.18 197.968 64.942 197.968 64.592ZM199.116 74H197.996V67H199.116V74ZM201.385 67H202.351L202.491 68.386C203.079 67.392 204.073 66.79 205.249 66.79C207.153 66.79 208.581 68.372 208.581 70.486C208.581 72.628 207.167 74.21 205.249 74.21C204.087 74.21 203.079 73.622 202.505 72.614V76.8H201.385V67ZM207.461 70.5C207.461 68.932 206.397 67.798 204.955 67.798C203.485 67.798 202.505 68.904 202.505 70.5C202.505 72.082 203.513 73.188 204.955 73.188C206.397 73.188 207.461 72.068 207.461 70.5ZM210.328 64.592C210.328 64.228 210.566 63.99 210.916 63.99C211.28 63.99 211.518 64.228 211.518 64.592C211.518 64.942 211.28 65.18 210.916 65.18C210.566 65.18 210.328 64.942 210.328 64.592ZM211.476 74H210.356V67H211.476V74ZM219.204 72.138C219.204 73.314 218.07 74.21 216.446 74.21C214.668 74.21 213.422 73.454 213.254 72.026H214.318C214.472 72.894 215.2 73.356 216.46 73.356C217.412 73.356 218.14 72.824 218.14 72.152C218.14 70.08 213.478 71.662 213.478 68.848C213.478 67.714 214.584 66.79 216.208 66.79C217.93 66.79 219.022 67.616 219.134 69.002H218.098C218.042 68.232 217.44 67.63 216.194 67.63C215.298 67.63 214.556 68.162 214.556 68.834C214.556 70.836 219.204 69.142 219.204 72.138ZM221.374 70.5C221.374 72.054 222.452 73.188 223.922 73.188C225.084 73.188 226.008 72.53 226.372 71.536H227.534C227.072 73.146 225.714 74.21 223.922 74.21C221.822 74.21 220.254 72.628 220.254 70.514C220.254 68.372 221.808 66.79 223.922 66.79C225.7 66.79 227.058 67.84 227.52 69.45H226.358C225.98 68.47 225.07 67.798 223.922 67.798C222.452 67.798 221.374 68.96 221.374 70.5ZM229.236 64.592C229.236 64.228 229.474 63.99 229.824 63.99C230.188 63.99 230.426 64.228 230.426 64.592C230.426 64.942 230.188 65.18 229.824 65.18C229.474 65.18 229.236 64.942 229.236 64.592ZM230.384 74H229.264V67H230.384V74ZM233.759 70.542V74H232.639V67H233.605L233.745 68.386C234.291 67.392 235.215 66.79 236.363 66.79C238.169 66.79 239.415 68.344 239.415 70.542V74H238.295V70.542C238.295 68.918 237.399 67.84 236.027 67.84C234.683 67.84 233.759 68.932 233.759 70.542ZM247.18 73.818V72.502C246.606 73.496 245.598 74.098 244.422 74.098C242.504 74.098 241.09 72.516 241.09 70.444C241.09 68.344 242.504 66.79 244.422 66.79C245.612 66.79 246.62 67.378 247.194 68.386L247.32 67H248.3V73.818C248.3 75.974 246.858 77.528 244.8 77.528C243.078 77.528 241.748 76.464 241.328 74.84H242.434C242.812 75.862 243.694 76.492 244.8 76.492C246.2 76.492 247.18 75.4 247.18 73.818ZM242.21 70.444C242.21 71.97 243.274 73.062 244.716 73.062C246.186 73.062 247.18 71.984 247.18 70.444C247.18 68.89 246.158 67.798 244.716 67.798C243.26 67.798 242.21 68.918 242.21 70.444ZM260.687 70.822H254.625C254.751 72.264 255.745 73.314 257.075 73.314C258.055 73.314 258.853 72.81 259.315 72.012H260.463C259.889 73.37 258.643 74.21 257.075 74.21C255.017 74.21 253.491 72.628 253.491 70.514C253.491 68.372 254.989 66.79 257.075 66.79C259.203 66.79 260.701 68.302 260.701 70.514C260.701 70.612 260.687 70.71 260.687 70.822ZM254.625 70.178H259.567C259.441 68.708 258.461 67.714 257.075 67.714C255.745 67.714 254.751 68.736 254.625 70.178ZM263.495 64.2V74H262.375V64.2H263.495ZM265.726 64.592C265.726 64.228 265.964 63.99 266.314 63.99C266.678 63.99 266.916 64.228 266.916 64.592C266.916 64.942 266.678 65.18 266.314 65.18C265.964 65.18 265.726 64.942 265.726 64.592ZM266.874 74H265.754V67H266.874V74ZM271.215 68.05V70.724C271.215 72.432 271.873 73.146 273.343 73.146V74.21C271.047 74.21 270.095 73.034 270.095 70.724V68.05H268.625V67.574L270.753 65.432H271.215V67H273.343V68.05H271.215Z" fill="#F6FFD2"/>
<g filter="url(#filter3_d_9_278)">
<path d="M304.577 11C300.944 11 298 13.9444 298 17.5766V40.8302C298 41.1521 298.426 41.2667 298.587 40.9884L310.264 20.8789C312.81 16.4945 309.646 11 304.577 11Z" fill="white"/>
</g>
<defs>
<filter id="filter0_d_9_278" x="0" y="10" width="316" height="109" filterUnits="userSpaceOnUse" color-interpolation-filters="sRGB">
<feFlood flood-opacity="0" result="BackgroundImageFix"/>
<feColorMatrix in="SourceAlpha" type="matrix" values="0 0 0 0 0 0 0 0 0 0 0 0 0 0 0 0 0 0 127 0" result="hardAlpha"/>
<feOffset dy="4"/>
<feGaussianBlur stdDeviation="7.5"/>
<feComposite in2="hardAlpha" operator="out"/>
<feColorMatrix type="matrix" values="0 0 0 0 1 0 0 0 0 1 0 0 0 0 1 0 0 0 0.35 0"/>
<feBlend mode="normal" in2="BackgroundImageFix" result="effect1_dropShadow_9_278"/>
<feBlend mode="normal" in="SourceGraphic" in2="effect1_dropShadow_9_278" result="shape"/>
</filter>
<filter id="filter1_b_9_278" x="0" y="6" width="316" height="109" filterUnits="userSpaceOnUse" color-interpolation-filters="sRGB">
<feFlood flood-opacity="0" result="BackgroundImageFix"/>
<feGaussianBlur in="BackgroundImageFix" stdDeviation="7.5"/>
<feComposite in2="SourceAlpha" operator="in" result="effect1_backgroundBlur_9_278"/>
<feBlend mode="normal" in="SourceGraphic" in2="effect1_backgroundBlur_9_278" result="shape"/>
</filter>
<filter id="filter2_d_9_278" x="43" y="48" width="21" height="42" filterUnits="userSpaceOnUse" color-interpolation-filters="sRGB">
<feFlood flood-opacity="0" result="BackgroundImageFix"/>
<feColorMatrix in="SourceAlpha" type="matrix" values="0 0 0 0 0 0 0 0 0 0 0 0 0 0 0 0 0 0 127 0" result="hardAlpha"/>
<feOffset dy="10"/>
<feGaussianBlur stdDeviation="3"/>
<feComposite in2="hardAlpha" operator="out"/>
<feColorMatrix type="matrix" values="0 0 0 0 1 0 0 0 0 1 0 0 0 0 1 0 0 0 0.15 0"/>
<feBlend mode="normal" in2="BackgroundImageFix" result="effect1_dropShadow_9_278"/>
<feBlend mode="normal" in="SourceGraphic" in2="effect1_dropShadow_9_278" result="shape"/>
</filter>
<filter id="filter3_d_9_278" x="283" y="0" width="43.163" height="60.1457" filterUnits="userSpaceOnUse" color-interpolation-filters="sRGB">
<feFlood flood-opacity="0" result="BackgroundImageFix"/>
<feColorMatrix in="SourceAlpha" type="matrix" values="0 0 0 0 0 0 0 0 0 0 0 0 0 0 0 0 0 0 127 0" result="hardAlpha"/>
<feOffset dy="4"/>
<feGaussianBlur stdDeviation="7.5"/>
<feComposite in2="hardAlpha" operator="out"/>
<feColorMatrix type="matrix" values="0 0 0 0 1 0 0 0 0 1 0 0 0 0 1 0 0 0 0.35 0"/>
<feBlend mode="normal" in2="BackgroundImageFix" result="effect1_dropShadow_9_278"/>
<feBlend mode="normal" in="SourceGraphic" in2="effect1_dropShadow_9_278" result="shape"/>
</filter>
</defs>
</svg>
